<?xml version="1.0" encoding="UTF-8" standalone="no"?>
<!-- Created with Inkscape (http://www.inkscape.org/) -->

<svg
   xmlns:dc="http://purl.org/dc/elements/1.1/"
   xmlns:cc="http://creativecommons.org/ns#"
   xmlns:rdf="http://www.w3.org/1999/02/22-rdf-syntax-ns#"
   xmlns:svg="http://www.w3.org/2000/svg"
   xmlns="http://www.w3.org/2000/svg"
   xmlns:sodipodi="http://sodipodi.sourceforge.net/DTD/sodipodi-0.dtd"
   xmlns:inkscape="http://www.inkscape.org/namespaces/inkscape"
   width="103.17632mm"
   height="31.762848mm"
   viewBox="0 0 365.5854 112.54552"
   id="svg2"
   version="1.1"
   inkscape:version="0.91 r13725"
   sodipodi:docname="Stick-black.svg">
  <defs
     id="defs4" />
  <sodipodi:namedview
     id="base"
     pagecolor="#ffffff"
     bordercolor="#666666"
     borderopacity="1.0"
     inkscape:pageopacity="0.0"
     inkscape:pageshadow="2"
     inkscape:zoom="2"
     inkscape:cx="208.63599"
     inkscape:cy="35.841663"
     inkscape:document-units="px"
     inkscape:current-layer="layer1"
     showgrid="false"
     fit-margin-top="0"
     fit-margin-left="0"
     fit-margin-right="0"
     fit-margin-bottom="0"
     inkscape:window-width="1920"
     inkscape:window-height="1018"
     inkscape:window-x="1358"
     inkscape:window-y="32"
     inkscape:window-maximized="1" />
  <metadata
     id="metadata7">
    <rdf:RDF>
      <cc:Work
         rdf:about="">
        <dc:format>image/svg+xml</dc:format>
        <dc:type
           rdf:resource="http://purl.org/dc/dcmitype/StillImage" />
        <dc:title></dc:title>
      </cc:Work>
    </rdf:RDF>
  </metadata>
  <g
     inkscape:label="Ebene 1"
     inkscape:groupmode="layer"
     id="layer1"
     transform="translate(-84.571007,-184.87957)">
    <text
       xml:space="preserve"
       style="font-style:normal;font-weight:normal;font-size:90px;line-height:125%;font-family:sans-serif;letter-spacing:0px;word-spacing:0px;fill:#000000;fill-opacity:1;stroke:none;stroke-width:1px;stroke-linecap:butt;stroke-linejoin:miter;stroke-opacity:1;"
       x="82.85714"
       y="272.36221"
       id="text4136"
       sodipodi:linespacing="125%"><tspan
         sodipodi:role="line"
         id="tspan4138"
         x="82.85714"
         y="272.36221"
         style="font-style:normal;font-variant:normal;font-weight:normal;font-stretch:normal;font-family:Monoton;-inkscape-font-specification:Monoton;fill:#000000;fill-opacity:1;">St:ck</tspan></text>
    <g
       id="g4451"
       transform="matrix(0.50807621,0,0,0.50807621,104.47784,88.611669)"
       style="fill:#000000;fill-opacity:1">
      <path
         style="fill:#000000;fill-opacity:1"
         d="m 524.16756,410.64653 c -0.42816,-0.16352 -2.70442,-2.3239 -5.05838,-4.80085 -4.51779,-4.75385 -5.34485,-6.54127 -4.3379,-9.37501 0.31115,-0.87564 13.07361,-13.79003 30.65395,-31.01889 l 30.12085,-29.51864 -0.0242,-2.84733 c -0.0133,-1.56603 -0.45124,-11.09322 -0.97321,-21.17153 -1.02633,-19.81656 -0.95843,-20.79373 1.57702,-22.69386 2.36679,-1.77373 6.18997,-0.76613 7.51785,1.98131 0.53531,1.10761 0.98089,5.93197 1.53642,16.63518 0.43035,8.29132 0.90471,15.2868 1.05414,15.5455 0.14943,0.2587 0.58802,0.47036 0.97465,0.47036 0.38662,0 8.02123,-7.15885 16.9658,-15.90855 21.60116,-21.13057 22.71007,-22.2847 23.05267,-23.99266 1.99883,-9.96469 5.22638,-19.02265 11.47413,-32.20167 2.65674,-5.60412 4.83044,-10.65857 4.83044,-11.23214 0,-0.57356 -2.6857,-8.72365 -5.96822,-18.11132 -3.82605,-10.94213 -5.96821,-17.83788 -5.96821,-19.21208 0,-3.04094 2.2317,-5.38985 5.12089,-5.38985 3.56604,0 4.26194,1.14672 9.09829,14.99253 3.46428,9.91777 4.55627,12.49377 5.29623,12.49377 1.0423,0 1.23194,-0.31339 12.34231,-20.39582 7.74187,-13.99373 8.82794,-15.41966 11.74453,-15.41966 2.76667,0 5.15281,2.62095 5.16986,5.67863 0.009,1.66793 -1.18398,4.19905 -6.15192,13.04905 -10.90076,19.41888 -20.34943,37.33719 -25.99364,49.29396 -5.48746,11.62473 -9.0684,21.2112 -8.50748,22.7752 0.53082,1.48006 2.86809,0.87915 15.17457,-3.90139 6.67462,-2.59281 12.93975,-4.7142 13.9225,-4.7142 2.62515,0 4.82084,2.50562 4.82084,5.50132 0,4.25803 -0.75582,4.70389 -21.39502,12.62105 l -18.54065,7.11216 -41.7608,45.27054 c -61.02437,66.15311 -63.61688,68.8789 -65.46053,68.82605 -0.84114,-0.0241 -1.87965,-0.17763 -2.3078,-0.34116 z"
         id="path4453"
         inkscape:connector-curvature="0" />
    </g>
  </g>
</svg>
